<svg width="88" height="90" viewBox="0 0 88 90" fill="none" xmlns="http://www.w3.org/2000/svg">
<rect width="88" height="90" rx="44" fill="#674188"/>
<path d="M72.3333 26.5834H35.5C32.3833 26.5834 29.8333 29.1334 29.8333 32.25V57.75C29.8333 60.895 32.3833 63.4167 35.5 63.4167H72.3333C75.4783 63.4167 78 60.895 78 57.75V32.25C78 29.1334 75.4783 26.5834 72.3333 26.5834ZM72.3333 36.9817L53.9167 46.4167L35.5 36.9817V32.25L53.9167 41.6284L72.3333 32.25V36.9817ZM24.1667 57.75C24.1667 58.2317 24.2517 58.685 24.3083 59.1667H12.8333C11.2693 59.1667 10 57.8917 10 56.3334C10 54.775 11.2693 53.5 12.8333 53.5H24.1667V57.75ZM18.5 30.8334H24.3083C24.2517 31.315 24.1667 31.7684 24.1667 32.25V36.5H18.5C16.9417 36.5 15.6667 35.225 15.6667 33.6667C15.6667 32.1084 16.9417 30.8334 18.5 30.8334ZM12.8333 45C12.8333 43.4417 14.1083 42.1667 15.6667 42.1667H24.1667V47.8334H15.6667C14.1083 47.8334 12.8333 46.5584 12.8333 45Z" fill="white"/>
</svg>
