<svg width="29" height="30" viewBox="0 0 29 30" fill="none" xmlns="http://www.w3.org/2000/svg">
<path d="M14.5 0C16.4042 0 18.2897 0.386262 20.0489 1.13673C21.8081 1.8872 23.4066 2.98718 24.753 4.37387C26.0995 5.76056 27.1676 7.4068 27.8963 9.21859C28.6249 11.0304 29 12.9723 29 14.9333C29 18.8939 27.4723 22.6923 24.753 25.4928C22.0338 28.2933 18.3456 29.8667 14.5 29.8667C12.5958 29.8667 10.7103 29.4804 8.95109 28.7299C7.19187 27.9795 5.5934 26.8795 4.24695 25.4928C1.52767 22.6923 0 18.8939 0 14.9333C0 10.9728 1.52767 7.17442 4.24695 4.37387C6.96623 1.57333 10.6544 0 14.5 0ZM8.7 8.52693V13.5147L19.053 14.9333L8.7 16.352V21.3397L23.2 14.9333L8.7 8.52693Z" fill="#674188"/>
</svg>
